<svg width="24" height="24" viewBox="0 0 24 24" fill="none" xmlns="http://www.w3.org/2000/svg">
<path fill-rule="evenodd" clip-rule="evenodd" d="M6.25917 3.23499C6.17317 3.23499 6.08617 3.24299 5.99817 3.25699C4.88017 3.44599 3.87317 4.74999 3.66517 5.08899C2.62317 6.55399 3.43717 9.95099 8.73917 15.254C14.0432 20.557 17.4402 21.369 18.8512 20.364C19.2452 20.12 20.5472 19.117 20.7362 17.997C20.8182 17.51 20.6732 17.048 20.2942 16.586C18.0772 13.894 17.3752 14.235 16.4082 14.706C14.9522 15.416 13.5302 15.789 10.8672 13.127C8.20818 10.466 8.57917 9.04399 9.28817 7.58699C9.76017 6.61799 10.1012 5.91799 7.40617 3.69799C7.02917 3.38799 6.65118 3.23499 6.25917 3.23499ZM17.5122 22.264C15.5302 22.264 12.3922 21.028 7.67917 16.314C0.641174 9.27699 1.35517 5.74999 2.40717 4.27299C2.40517 4.27299 3.72917 2.15599 5.69217 1.78899C6.62617 1.61499 7.54517 1.87399 8.35917 2.53899C11.7012 5.29299 11.3912 6.69499 10.6372 8.24299C10.1742 9.19399 9.80818 9.94499 11.9282 12.066C14.0492 14.185 14.8012 13.823 15.7512 13.357C17.3002 12.604 18.7012 12.292 21.4532 15.633C22.1212 16.449 22.3812 17.374 22.2032 18.309C21.8262 20.301 19.6742 21.617 19.6532 21.629C19.1882 21.963 18.4902 22.264 17.5122 22.264Z" fill="white"/>
</svg>
