<svg viewBox="0 0 127 22" fill="none" xmlns="http://www.w3.org/2000/svg">
  <path d="M1.33663 4.45544C0.445545 4.45544 0 7.57426 0 7.57426H13.3663C13.3663 7.57426 12.9208 4.45544 12.0297 4.45544H1.33663Z" fill="currentColor"/>
  <path d="M13.3663 9.13366H0C0 9.13366 0.445545 12.2525 1.33663 12.2525H5.34653V17.3762H8.0198V12.2525H11.8069C13.1436 12.2525 13.3663 9.13366 13.3663 9.13366Z" fill="currentColor"/>
  <path d="M16.9307 17.3762H20.0495V6.90593H25.1732V9.13365H21.1633V12.2525H25.1732V17.3762H27.6237V4.00989H18.2673C17.4864 4.52348 17.1879 5.05506 16.9307 6.46038V17.3762Z" fill="currentColor"/>
  <path d="M40.5447 8.0198V4.45544H32.5249C31.7697 4.79385 31.5025 5.16492 31.1882 6.01485V8.0198H40.5447Z" fill="currentColor"/>
  <path d="M34.307 13.3663V9.35643H31.1882V13.3663H34.307Z" fill="currentColor"/>
  <path d="M40.5447 14.2574H31.1882C31.3747 16.2523 31.6179 17.0497 32.5249 17.3762H40.5447V14.2574Z" fill="currentColor"/>
  <path d="M126.98 8.0198V4.45544H118.96C118.205 4.79385 117.938 5.16492 117.624 6.01485V8.0198H126.98Z" fill="currentColor"/>
  <path d="M120.743 13.3663V9.35643H117.624V13.3663H120.743Z" fill="currentColor"/>
  <path d="M126.98 14.2574H117.624C117.81 16.2523 118.053 17.0497 118.96 17.3762H126.98V14.2574Z" fill="currentColor"/>
  <path d="M62.8218 4.45544V7.57426H72.1782V4.45544H62.8218Z" fill="currentColor"/>
  <path d="M62.8218 16.9307V9.35643H69.7277V12.0297H65.9406C65.1521 12.181 64.9734 12.6938 65.0495 14.2574H72.1782V16.9307H62.8218Z" fill="currentColor"/>
  <path d="M90.2227 4.45544V7.57426H99.5791V4.45544H90.2227Z" fill="currentColor"/>
  <path d="M90.2227 16.9307V9.35643H97.1286V12.0297H93.3415C92.553 12.181 92.3743 12.6938 92.4504 14.2574H99.5791V16.9307H90.2227Z" fill="currentColor"/>
  <path d="M75.7424 4.45544V17.1535H78.6385V4.45544H75.7424Z" fill="currentColor"/>
  <path d="M83.7622 9.35643H79.7523V12.698H83.7622V17.1535H86.6583V4.45544H83.7622V9.35643Z" fill="currentColor"/>
  <path d="M103.144 17.1535V4.45544H112.5C113.23 4.67696 113.486 4.8942 113.837 5.34653V7.35148H106.04V17.1535H103.144Z" fill="currentColor"/>
  <path d="M107.376 12.698V9.57921H114.059C113.792 10.6909 113.455 11.3607 112.277 12.698H107.376Z" fill="currentColor"/>
  <path d="M44.1091 0V5.34653H59.2576V0H44.1091Z" fill="currentColor"/>
  <path d="M48.119 9.35644V6.01485H54.8022V9.35644H48.119Z" fill="currentColor"/>
  <path d="M48.119 20.495V10.2475H54.8022V20.495L54.3567 21.8317H48.5646L48.119 20.495Z" fill="currentColor"/>
  <path d="M48.1189 11.1385L54.8021 10.693" stroke="#DBDBDB" stroke-width="0.5"/>
  <path d="M48.1189 12.0298L54.8021 11.5842" stroke="#DBDBDB" stroke-width="0.5"/>
  <path d="M48.1189 12.9208L54.8021 12.4752" stroke="#DBDBDB" stroke-width="0.5"/>
  <path d="M48.1189 13.8119L54.8021 13.3663" stroke="#DBDBDB" stroke-width="0.5"/>
  <path d="M48.1189 14.703L54.8021 14.2574" stroke="#DBDBDB" stroke-width="0.5"/>
  <path d="M48.1189 15.5941L54.8021 15.1486" stroke="#DBDBDB" stroke-width="0.5"/>
  <path d="M48.1189 16.4851L54.8021 16.0396" stroke="#DBDBDB" stroke-width="0.5"/>
  <path d="M48.1189 17.3762L54.8021 16.9307" stroke="#DBDBDB" stroke-width="0.5"/>
  <path d="M48.1189 18.2673L54.8021 17.8218" stroke="#DBDBDB" stroke-width="0.5"/>
  <path d="M48.1189 19.1583L54.8021 18.7128" stroke="#DBDBDB" stroke-width="0.5"/>
  <path d="M48.1189 20.0495L54.8021 19.604" stroke="#DBDBDB" stroke-width="0.5"/>
</svg>
